<svg width="52" height="18" viewBox="0 0 52 18" fill="none" xmlns="http://www.w3.org/2000/svg">
<path d="M52 0L13.9574 16.0181C10.8027 17.3379 8.15283 18 6.00998 18C3.58329 18 1.82178 17.1601 0.729769 15.4782C0.0429303 14.3983 -0.158571 13.0292 0.123098 11.3686C0.404766 9.70813 1.15444 7.94048 2.36778 6.05928C3.37962 4.53803 5.03714 2.53898 7.34465 0.0599926C6.56197 1.27842 5.98803 2.61624 5.64597 4.01952C5.0393 6.57993 5.58531 8.45899 7.28399 9.65885C8.09216 10.2181 9.20367 10.4987 10.6207 10.4987C11.7517 10.4987 13.0257 10.3188 14.4427 9.95881L52 0Z" fill="white"/>
</svg>
